<svg width="31" height="30" viewBox="0 0 31 30" fill="none" xmlns="http://www.w3.org/2000/svg">
<g clip-path="url(#clip0_1_48)">
<path d="M28.625 15.9374V19.6874C28.625 19.9361 28.5262 20.1745 28.3504 20.3504C28.1746 20.5262 27.9361 20.6249 27.6875 20.6249C27.6257 20.6251 27.564 20.6188 27.5035 20.6062L18.7812 18.8671V21.648L20.8508 23.7163C21.0254 23.8912 21.1239 24.1278 21.125 24.3749V27.1874C21.1252 27.3411 21.0877 27.4925 21.0158 27.6282C20.9438 27.764 20.8396 27.8799 20.7122 27.9659C20.5849 28.0519 20.4384 28.1053 20.2856 28.1214C20.1328 28.1375 19.9784 28.1158 19.8359 28.0581L15.5 26.3226L11.164 28.0581C11.0216 28.1158 10.8672 28.1375 10.7144 28.1214C10.5616 28.1053 10.4151 28.0519 10.2877 27.9659C10.1604 27.8799 10.0562 27.764 9.9842 27.6282C9.91222 27.4925 9.87472 27.3411 9.87498 27.1874V24.3749C9.87489 24.2518 9.89906 24.1298 9.94611 24.016C9.99316 23.9022 10.0622 23.7988 10.1492 23.7117L12.2187 21.6433V18.8671L3.49647 20.6062C3.43596 20.6188 3.3743 20.6251 3.31248 20.6249C3.06384 20.6249 2.82539 20.5262 2.64957 20.3504C2.47376 20.1745 2.37498 19.9361 2.37498 19.6874V15.9374C2.37486 15.7633 2.42326 15.5925 2.51474 15.4443C2.60623 15.2961 2.7372 15.1763 2.89295 15.0984L12.2187 10.4367V5.15619C12.2187 4.28595 12.5644 3.45135 13.1798 2.83599C13.7951 2.22064 14.6297 1.87494 15.5 1.87494C16.3702 1.87494 17.2048 2.22064 17.8202 2.83599C18.4355 3.45135 18.7812 4.28595 18.7812 5.15619V10.4367L28.107 15.0984C28.2628 15.1763 28.3937 15.2961 28.4852 15.4443C28.5767 15.5925 28.6251 15.7633 28.625 15.9374Z" fill="#269EE6"/>
</g>
<defs>
<clipPath id="clip0_1_48">
<rect width="30" height="30" fill="white" transform="translate(0.499969)"/>
</clipPath>
</defs>
</svg>
