<svg width="131" height="46" viewBox="0 0 131 46" fill="none" xmlns="http://www.w3.org/2000/svg">
<g clip-path="url(#clip0_66_581)">
<path d="M40.2253 38.88C40.1041 39.0899 39.9297 39.2643 39.7198 39.3854C39.5098 39.5066 39.2717 39.5704 39.0292 39.5704H5.89107C5.64881 39.5701 5.41089 39.5061 5.20119 39.3848C4.99148 39.2636 4.81738 39.0892 4.69636 38.8794C4.57534 38.6695 4.51166 38.4315 4.51173 38.1892C4.51179 37.947 4.57559 37.709 4.69671 37.4992C7.32533 32.9548 11.3761 29.6962 16.1035 28.1515C13.7651 26.7595 11.9484 24.6383 10.9322 22.1138C9.91602 19.5893 9.75664 16.801 10.4785 14.1771C11.2004 11.5533 12.7636 9.23893 14.9282 7.58949C17.0927 5.94006 19.7388 5.04675 22.4601 5.04675C25.1815 5.04675 27.8276 5.94006 29.9921 7.58949C32.1566 9.23893 33.7199 11.5533 34.4418 14.1771C35.1636 16.801 35.0043 19.5893 33.9881 22.1138C32.9719 24.6383 31.1552 26.7595 28.8168 28.1515C33.5442 29.6962 37.595 32.9548 40.2236 37.4992C40.345 37.709 40.4091 37.947 40.4094 38.1894C40.4097 38.4317 40.3462 38.6699 40.2253 38.88Z" fill="#B1D5EB"/>
</g>
<g clip-path="url(#clip1_66_581)">
<path d="M69.0411 38.88C68.9199 39.0899 68.7455 39.2643 68.5356 39.3854C68.3256 39.5066 68.0874 39.5704 67.845 39.5704H34.7069C34.4646 39.5701 34.2267 39.5061 34.017 39.3848C33.8073 39.2636 33.6332 39.0892 33.5121 38.8794C33.3911 38.6695 33.3275 38.4315 33.3275 38.1892C33.3276 37.947 33.3914 37.709 33.5125 37.4992C36.1411 32.9548 40.1919 29.6962 44.9193 28.1515C42.5809 26.7595 40.7641 24.6383 39.748 22.1138C38.7318 19.5893 38.5724 16.801 39.2943 14.1771C40.0162 11.5533 41.5794 9.23893 43.744 7.58949C45.9085 5.94006 48.5546 5.04675 51.2759 5.04675C53.9973 5.04675 56.6434 5.94006 58.8079 7.58949C60.9724 9.23893 62.5357 11.5533 63.2576 14.1771C63.9794 16.801 63.8201 19.5893 62.8039 22.1138C61.7877 24.6383 59.971 26.7595 57.6326 28.1515C62.36 29.6962 66.4108 32.9548 69.0394 37.4992C69.1608 37.709 69.2249 37.947 69.2252 38.1894C69.2255 38.4317 69.162 38.6699 69.0411 38.88Z" fill="#B1D5EB"/>
</g>
<g clip-path="url(#clip2_66_581)">
<path d="M97.8569 38.88C97.7357 39.0899 97.5613 39.2643 97.3514 39.3854C97.1414 39.5066 96.9032 39.5704 96.6608 39.5704H63.5226C63.2804 39.5701 63.0425 39.5061 62.8328 39.3848C62.6231 39.2636 62.449 39.0892 62.3279 38.8794C62.2069 38.6695 62.1432 38.4315 62.1433 38.1892C62.1434 37.947 62.2072 37.709 62.3283 37.4992C64.9569 32.9548 69.0077 29.6962 73.7351 28.1515C71.3967 26.7595 69.5799 24.6383 68.5638 22.1138C67.5476 19.5893 67.3882 16.801 68.1101 14.1771C68.832 11.5533 70.3952 9.23893 72.5597 7.58949C74.7243 5.94006 77.3704 5.04675 80.0917 5.04675C82.8131 5.04675 85.4592 5.94006 87.6237 7.58949C89.7882 9.23893 91.3515 11.5533 92.0733 14.1771C92.7952 16.801 92.6358 19.5893 91.6197 22.1138C90.6035 24.6383 88.7867 26.7595 86.4484 28.1515C91.1757 29.6962 95.2265 32.9548 97.8552 37.4992C97.9766 37.709 98.0407 37.947 98.041 38.1894C98.0413 38.4317 97.9778 38.6699 97.8569 38.88Z" fill="#B1D5EB"/>
</g>
<g clip-path="url(#clip3_66_581)">
<path d="M126.673 38.88C126.552 39.0899 126.378 39.2643 126.168 39.3854C125.958 39.5066 125.72 39.5704 125.477 39.5704H92.3389C92.0967 39.5701 91.8587 39.5061 91.649 39.3848C91.4393 39.2636 91.2652 39.0892 91.1442 38.8794C91.0232 38.6695 90.9595 38.4315 90.9596 38.1892C90.9596 37.947 91.0234 37.709 91.1446 37.4992C93.7732 32.9548 97.824 29.6962 102.551 28.1515C100.213 26.7595 98.3962 24.6383 97.38 22.1138C96.3639 19.5893 96.2045 16.801 96.9264 14.1771C97.6483 11.5533 99.2115 9.23893 101.376 7.58949C103.541 5.94006 106.187 5.04675 108.908 5.04675C111.629 5.04675 114.275 5.94006 116.44 7.58949C118.604 9.23893 120.168 11.5533 120.89 14.1771C121.612 16.801 121.452 19.5893 120.436 22.1138C119.42 24.6383 117.603 26.7595 115.265 28.1515C119.992 29.6962 124.043 32.9548 126.671 37.4992C126.793 37.709 126.857 37.947 126.857 38.1894C126.858 38.4317 126.794 38.6699 126.673 38.88Z" fill="#B1D5EB"/>
</g>
<defs>
<clipPath id="clip0_66_581">
<rect width="44.1842" height="44.1842" fill="white" transform="translate(0.368408 0.907959)"/>
</clipPath>
<clipPath id="clip1_66_581">
<rect width="44.1842" height="44.1842" fill="white" transform="translate(29.1842 0.907959)"/>
</clipPath>
<clipPath id="clip2_66_581">
<rect width="44.1842" height="44.1842" fill="white" transform="translate(58 0.907959)"/>
</clipPath>
<clipPath id="clip3_66_581">
<rect width="44.1842" height="44.1842" fill="white" transform="translate(86.8158 0.907959)"/>
</clipPath>
</defs>
</svg>
