<svg width="152" height="61" viewBox="0 0 152 61" fill="none" xmlns="http://www.w3.org/2000/svg">
<rect x="0.5" width="61" height="61" rx="30.5" fill="#269EE6"/>
<path d="M42.0077 49.0065C41.0959 49.55 40.1405 50.0281 39.1481 50.4342C39.6807 50.2649 40.248 50.1735 40.8366 50.1735C41.8559 50.1735 42.8112 50.4474 43.633 50.9256C42.9558 50.4199 42.3975 49.7637 42.0077 49.0065Z" fill="white"/>
<path fill-rule="evenodd" clip-rule="evenodd" d="M43.633 50.9256C43.8173 51.0329 43.9949 51.1504 44.165 51.2774C43.9807 51.1702 43.8031 51.0527 43.633 50.9256ZM39.1481 50.4342C38.9216 50.5062 38.7015 50.5922 38.4886 50.6914C38.7102 50.6091 38.93 50.5234 39.1481 50.4342Z" fill="white"/>
<path fill-rule="evenodd" clip-rule="evenodd" d="M49.5063 41.5079C50.0498 40.5961 50.5279 39.6408 50.934 38.6483C51.0232 38.4303 51.1089 38.2104 51.1911 37.9888C52.0565 35.6565 52.5293 33.1335 52.5293 30.5001C52.5293 18.6097 42.8903 8.9707 30.9999 8.9707C19.1095 8.9707 9.47049 18.6097 9.47049 30.5001C9.47049 42.3905 19.1095 52.0295 30.9999 52.0295C33.6333 52.0295 36.1563 51.5567 38.4886 50.6914C38.7102 50.6091 38.93 50.5234 39.1481 50.4342C40.1405 50.0281 41.0959 49.55 42.0077 49.0065C42.3975 49.7637 42.9558 50.4199 43.633 50.9256C43.8031 51.0527 43.9807 51.1702 44.165 51.2774C44.9868 51.7556 45.9421 52.0295 46.9614 52.0295C50.0365 52.0295 52.5293 49.5367 52.5293 46.4616C52.5293 45.4423 52.2554 44.487 51.7772 43.6652C51.67 43.4809 51.5524 43.3033 51.4254 43.1332C50.9197 42.456 50.2634 41.8977 49.5063 41.5079ZM49.5063 41.5079C48.7435 41.1153 47.8783 40.8936 46.9614 40.8936C43.8863 40.8936 41.3934 43.3865 41.3934 46.4616C41.3934 47.3785 41.6151 48.2437 42.0077 49.0065C45.0876 47.1706 47.6704 44.5878 49.5063 41.5079Z" fill="white"/>
<path fill-rule="evenodd" clip-rule="evenodd" d="M50.934 38.6483C51.0059 38.4219 51.092 38.2017 51.1911 37.9888C51.1089 38.2104 51.0232 38.4303 50.934 38.6483ZM51.7772 43.6652C51.6502 43.4951 51.5327 43.3175 51.4254 43.1332C51.5524 43.3033 51.67 43.4809 51.7772 43.6652Z" fill="white"/>
<path d="M49.5063 41.5079C50.2634 41.8977 50.9197 42.456 51.4254 43.1332C50.9472 42.3114 50.6733 41.3561 50.6733 40.3368C50.6733 39.7482 50.7647 39.1809 50.934 38.6483C50.5279 39.6408 50.0498 40.5961 49.5063 41.5079Z" fill="white"/>
<path d="M46.9614 40.8936C43.8863 40.8936 41.3934 43.3865 41.3934 46.4616C41.3934 47.3785 41.6151 48.2437 42.0077 49.0065C45.0876 47.1706 47.6704 44.5878 49.5063 41.5079C48.7435 41.1153 47.8783 40.8936 46.9614 40.8936Z" fill="white"/>
<path d="M42.0077 49.0065C41.0959 49.55 40.1405 50.0281 39.1481 50.4342C39.6807 50.2649 40.248 50.1735 40.8366 50.1735C41.8559 50.1735 42.8112 50.4474 43.633 50.9256C42.9558 50.4199 42.3975 49.7637 42.0077 49.0065Z" fill="white"/>
<path fill-rule="evenodd" clip-rule="evenodd" d="M43.633 50.9256C43.8173 51.0329 43.9949 51.1504 44.165 51.2774C43.9807 51.1702 43.8031 51.0527 43.633 50.9256ZM39.1481 50.4342C38.9216 50.5062 38.7015 50.5922 38.4886 50.6914C38.7102 50.6091 38.93 50.5234 39.1481 50.4342Z" fill="white"/>
<path fill-rule="evenodd" clip-rule="evenodd" d="M49.5063 41.5079C50.0498 40.5961 50.5279 39.6408 50.934 38.6483C51.0232 38.4303 51.1089 38.2104 51.1911 37.9888C52.0565 35.6565 52.5293 33.1335 52.5293 30.5001C52.5293 18.6097 42.8903 8.9707 30.9999 8.9707C19.1095 8.9707 9.47049 18.6097 9.47049 30.5001C9.47049 42.3905 19.1095 52.0295 30.9999 52.0295C33.6333 52.0295 36.1563 51.5567 38.4886 50.6914C38.7102 50.6091 38.93 50.5234 39.1481 50.4342C40.1405 50.0281 41.0959 49.55 42.0077 49.0065C42.3975 49.7637 42.9558 50.4199 43.633 50.9256C43.8031 51.0527 43.9807 51.1702 44.165 51.2774C44.9868 51.7556 45.9421 52.0295 46.9614 52.0295C50.0365 52.0295 52.5293 49.5367 52.5293 46.4616C52.5293 45.4423 52.2554 44.487 51.7772 43.6652C51.67 43.4809 51.5524 43.3033 51.4254 43.1332C50.9197 42.456 50.2634 41.8977 49.5063 41.5079ZM49.5063 41.5079C48.7435 41.1153 47.8783 40.8936 46.9614 40.8936C43.8863 40.8936 41.3934 43.3865 41.3934 46.4616C41.3934 47.3785 41.6151 48.2437 42.0077 49.0065C45.0876 47.1706 47.6704 44.5878 49.5063 41.5079Z" fill="white"/>
<path fill-rule="evenodd" clip-rule="evenodd" d="M50.934 38.6483C51.0059 38.4219 51.092 38.2017 51.1911 37.9888C51.1089 38.2104 51.0232 38.4303 50.934 38.6483ZM51.7772 43.6652C51.6502 43.4951 51.5327 43.3175 51.4254 43.1332C51.5524 43.3033 51.67 43.4809 51.7772 43.6652Z" fill="white"/>
<path d="M49.5063 41.5079C50.2634 41.8977 50.9197 42.456 51.4254 43.1332C50.9472 42.3114 50.6733 41.3561 50.6733 40.3368C50.6733 39.7482 50.7647 39.1809 50.934 38.6483C50.5279 39.6408 50.0498 40.5961 49.5063 41.5079Z" fill="white"/>
<path d="M46.9614 40.8936C43.8863 40.8936 41.3934 43.3865 41.3934 46.4616C41.3934 47.3785 41.6151 48.2437 42.0077 49.0065C45.0876 47.1706 47.6704 44.5878 49.5063 41.5079C48.7435 41.1153 47.8783 40.8936 46.9614 40.8936Z" fill="white"/>
<circle cx="17.8223" cy="26.4169" r="1.48477" fill="#000710"/>
<circle cx="44.1775" cy="26.4169" r="1.48477" fill="#000710"/>
<path fill-rule="evenodd" clip-rule="evenodd" d="M37.8802 35.2356C38.8082 33.8898 39.3516 32.2584 39.3516 30.5C39.3516 25.8874 35.6124 22.1482 30.9998 22.1482C26.3872 22.1482 22.648 25.8874 22.648 30.5C22.648 32.2584 23.1914 33.8898 24.1194 35.2356C24.9491 34.4607 27.4869 32.9109 30.9998 32.9109C34.5127 32.9109 37.0505 34.4607 37.8802 35.2356Z" fill="#269EE6"/>
<path d="M24.1194 35.2356C25.6258 37.4201 28.1456 38.8518 30.9998 38.8518C33.854 38.8518 36.3738 37.4201 37.8802 35.2356C37.0505 34.4607 34.5127 32.9109 30.9998 32.9109C27.4869 32.9109 24.9491 34.4607 24.1194 35.2356Z" fill="#FF4C4C"/>
<path d="M68.0403 45.61C65.8172 45.61 63.6551 45.2779 61.554 44.6137C59.4664 43.9494 57.6974 42.987 56.247 41.7263L59.7443 36.1957C60.3272 36.8328 61.0795 37.3886 62.0013 37.863C62.9366 38.3374 63.933 38.7034 64.9903 38.961C66.0476 39.2186 67.0643 39.3473 68.0403 39.3473C69.2739 39.3473 70.2838 39.1576 71.07 38.778C71.8698 38.3849 72.2696 37.8223 72.2696 37.0903C72.2696 36.4397 71.9714 35.9042 71.375 35.484C70.7921 35.0502 69.7076 34.6232 68.1216 34.203L65.8443 33.5727C62.835 32.7458 60.6729 31.6071 59.358 30.1567C58.0566 28.7062 57.406 26.9711 57.406 24.9513C57.406 23.6636 57.6771 22.4774 58.2193 21.393C58.7751 20.295 59.5478 19.3393 60.5373 18.526C61.5404 17.7127 62.713 17.0823 64.055 16.635C65.4105 16.1877 66.8745 15.964 68.447 15.964C70.6701 15.964 72.7373 16.2893 74.6486 16.94C76.5735 17.5771 78.1189 18.465 79.2846 19.6037L75.6653 24.992C75.1638 24.4362 74.5334 23.955 73.7743 23.5483C73.0288 23.1281 72.2086 22.8028 71.314 22.5723C70.4193 22.3283 69.5179 22.2063 68.6096 22.2063C67.8099 22.2063 67.105 22.308 66.495 22.5113C65.8985 22.7147 65.4376 22.9993 65.1123 23.3653C64.787 23.7178 64.6243 24.1312 64.6243 24.6057C64.6243 25.0123 64.7531 25.3512 65.0106 25.6223C65.2682 25.8934 65.702 26.151 66.312 26.395C66.922 26.639 67.7489 26.9101 68.7926 27.2083L71.07 27.8793C74.0658 28.7604 76.2279 29.8584 77.5563 31.1733C78.8848 32.4882 79.549 34.1827 79.549 36.2567C79.549 38.1002 79.0745 39.7269 78.1256 41.1367C77.1903 42.5464 75.8551 43.6444 74.12 44.4307C72.3984 45.2169 70.3719 45.61 68.0403 45.61ZM83.251 53.54V24.0567H89.5747V26.273C90.3202 25.4054 91.2827 24.7209 92.462 24.2193C93.6549 23.7042 95.0037 23.4467 96.5083 23.4467C98.4874 23.4467 100.263 23.9008 101.836 24.809C103.408 25.7172 104.642 27.005 105.536 28.6723C106.445 30.3261 106.899 32.2781 106.899 34.5283C106.899 36.1008 106.641 37.558 106.126 38.9C105.611 40.242 104.879 41.4146 103.93 42.4177C102.995 43.4208 101.883 44.207 100.595 44.7763C99.3211 45.3321 97.9113 45.61 96.366 45.61C95.268 45.61 94.231 45.4406 93.255 45.1017C92.2926 44.7763 91.4114 44.2883 90.6117 43.6377V53.54H83.251ZM95.146 39.2863C96.0136 39.2863 96.793 39.0966 97.4843 38.717C98.1757 38.3239 98.7111 37.7749 99.0907 37.07C99.4838 36.3516 99.6803 35.5043 99.6803 34.5283C99.6803 33.5523 99.4838 32.7119 99.0907 32.007C98.6976 31.2886 98.1553 30.7396 97.464 30.36C96.7727 29.9669 96 29.7703 95.146 29.7703C94.292 29.7703 93.5193 29.9669 92.828 30.36C92.1502 30.7396 91.608 31.2886 91.2013 32.007C90.8082 32.7119 90.6117 33.5523 90.6117 34.5283C90.6117 35.5043 90.8082 36.3516 91.2013 37.07C91.5944 37.7749 92.1299 38.3239 92.8077 38.717C93.499 39.0966 94.2784 39.2863 95.146 39.2863ZM110.449 45V15.72H117.85V45H110.449ZM122.993 45V24.0567H130.394V45H122.993ZM126.694 21.149C125.528 21.149 124.511 20.7966 123.644 20.0917C122.79 19.3732 122.363 18.3904 122.363 17.1433C122.363 15.9098 122.79 14.9338 123.644 14.2153C124.511 13.4969 125.528 13.1377 126.694 13.1377C127.859 13.1377 128.869 13.4969 129.723 14.2153C130.591 14.9338 131.025 15.9098 131.025 17.1433C131.025 18.3904 130.591 19.3732 129.723 20.0917C128.869 20.7966 127.859 21.149 126.694 21.149ZM144.87 45.61C142.457 45.61 140.566 44.939 139.197 43.597C137.841 42.2414 137.164 40.2352 137.164 37.5783V18.099H144.565V24.0567H149.201V29.872H144.565V36.3787C144.565 37.3818 144.802 38.0867 145.277 38.4933C145.751 38.9 146.334 39.1033 147.025 39.1033C147.432 39.1033 147.839 39.0559 148.245 38.961C148.665 38.8526 149.052 38.6967 149.404 38.4933L150.279 44.268C149.641 44.634 148.848 44.9458 147.9 45.2033C146.951 45.4744 145.941 45.61 144.87 45.61ZM133.28 29.872V24.0567H137.794V29.872H133.28Z" fill="white"/>
</svg>
