<svg width="22" height="22" viewBox="0 0 22 22" fill="none" xmlns="http://www.w3.org/2000/svg">
<g clip-path="url(#clip0_1_448)">
<path d="M20.4239 10.1114L13.5489 16.9864C13.4527 17.0827 13.3302 17.1482 13.1967 17.1748C13.0633 17.2014 12.925 17.1878 12.7993 17.1357C12.6736 17.0836 12.5662 16.9954 12.4906 16.8822C12.4151 16.7691 12.3748 16.6361 12.3749 16.5V13.0823C7.46792 13.3607 4.10346 16.543 3.15901 17.551C3.01071 17.7094 2.81623 17.817 2.60325 17.8584C2.39028 17.8999 2.16965 17.8731 1.97278 17.7819C1.7759 17.6907 1.61281 17.5397 1.50671 17.3504C1.40061 17.1612 1.35691 16.9433 1.38182 16.7277C1.70065 13.9554 3.21917 11.2888 5.65807 9.21938C7.68362 7.50063 10.1457 6.41009 12.3749 6.2193V2.75001C12.3748 2.61395 12.4151 2.48093 12.4906 2.36777C12.5662 2.25461 12.6736 2.16641 12.7993 2.11433C12.925 2.06225 13.0633 2.04863 13.1967 2.07521C13.3302 2.10178 13.4527 2.16734 13.5489 2.2636L20.4239 9.1386C20.4878 9.20245 20.5385 9.27828 20.5731 9.36174C20.6077 9.4452 20.6255 9.53466 20.6255 9.62501C20.6255 9.71536 20.6077 9.80482 20.5731 9.88828C20.5385 9.97174 20.4878 10.0476 20.4239 10.1114Z" fill="black"/>
</g>
<defs>
<clipPath id="clip0_1_448">
<rect width="22" height="22" fill="white"/>
</clipPath>
</defs>
</svg>
